<?xml version="1.0" encoding="UTF-8"?>
<svg width="200" height="100" viewBox="0 0 200 100" xmlns="http://www.w3.org/2000/svg">
    <!-- Train Body -->
    <path d="M20 50 L40 50 L40 70 L160 70 L160 50 L180 50 L180 30 L160 30 L160 20 L40 20 L40 30 L20 30 Z" fill="black"/>
    
    <!-- Train Windows -->
    <rect x="50" y="30" width="20" height="15" fill="black"/>
    <rect x="80" y="30" width="20" height="15" fill="black"/>
    <rect x="110" y="30" width="20" height="15" fill="black"/>
    <rect x="140" y="30" width="20" height="15" fill="black"/>
    
    <!-- Train Wheels -->
    <circle cx="50" cy="70" r="10" fill="black"/>
    <circle cx="150" cy="70" r="10" fill="black"/>
    
    <!-- Train Front -->
    <path d="M180 30 L200 40 L180 50 Z" fill="black"/>
    
    <!-- Train Details -->
    <rect x="40" y="30" width="120" height="20" fill="black"/>
    <path d="M20 30 L40 30 L40 50 L20 50 Z" fill="black"/>
    
    <!-- Energy Lines -->
    <path d="M10 40 L20 40" stroke="black" stroke-width="2"/>
    <path d="M10 45 L20 45" stroke="black" stroke-width="2"/>
    <path d="M10 50 L20 50" stroke="black" stroke-width="2"/>
</svg> 